<svg xmlns="http://www.w3.org/2000/svg" width="975" height="500">
   <g transform="translate(40,400)">
      <text x="237.5" y="-320" stroke="#c30000" font-size="150%">Politeness Over Time</text>
      <line x1="50"
            x2="50"
            y1="0"
            y2="-300"
            stroke="black"
            stroke-width="2"/>
      <line x1="50"
            x2="675"
            y1="0"
            y2="0"
            stroke="black"
            stroke-width="2"/>
      <line x1="50"
            y1="-300"
            x2="675"
            y2="-300"
            stroke="black"
            opacity="0.5"
            stroke-dasharray="8 4"
            stroke-width="1"/>
      <text x="-5" y="-300">100%</text>
      <line x1="50"
            y1="-270"
            x2="675"
            y2="-270"
            stroke="black"
            opacity="0.5"
            stroke-dasharray="8 4"
            stroke-width="1"/>
      <text x="-5" y="-270">90%</text>
      <line x1="50"
            y1="-240"
            x2="675"
            y2="-240"
            stroke="black"
            opacity="0.5"
            stroke-dasharray="8 4"
            stroke-width="1"/>
      <text x="-5" y="-240">80%</text>
      <line x1="50"
            y1="-210"
            x2="675"
            y2="-210"
            stroke="black"
            opacity="0.5"
            stroke-dasharray="8 4"
            stroke-width="1"/>
      <text x="-5" y="-210">70%</text>
      <line x1="50"
            y1="-180"
            x2="675"
            y2="-180"
            stroke="black"
            opacity="0.5"
            stroke-dasharray="8 4"
            stroke-width="1"/>
      <text x="-5" y="-180">60%</text>
      <line x1="50"
            y1="-150"
            x2="675"
            y2="-150"
            stroke="black"
            opacity="0.5"
            stroke-dasharray="8 4"
            stroke-width="1"/>
      <text x="-5" y="-150">50%</text>
      <line x1="50"
            y1="-120"
            x2="675"
            y2="-120"
            stroke="black"
            opacity="0.5"
            stroke-dasharray="8 4"
            stroke-width="1"/>
      <text x="-5" y="-120">40%</text>
      <line x1="50"
            y1="-90"
            x2="675"
            y2="-90"
            stroke="black"
            opacity="0.5"
            stroke-dasharray="8 4"
            stroke-width="1"/>
      <text x="-5" y="-90">30%</text>
      <line x1="50"
            y1="-60"
            x2="675"
            y2="-60"
            stroke="black"
            opacity="0.5"
            stroke-dasharray="8 4"
            stroke-width="1"/>
      <text x="-5" y="-60">20%</text>
      <line x1="50"
            y1="-30"
            x2="675"
            y2="-30"
            stroke="black"
            opacity="0.5"
            stroke-dasharray="8 4"
            stroke-width="1"/>
      <text x="-5" y="-30">10%</text>
      <text x="-20"
            y="-150"
            font-size="85%"
            text-anchor="middle"
            transform="rotate(270 -20 -150)">Percentage of Features</text>
      <text x="337.5" y="45" text-anchor="middle" font-size="85%">Year</text>
      <rect x="565"
            y="-240"
            width="280"
            height="90"
            stroke="black"
            stroke-width="1"
            fill="white"/>
      <line x1="575"
            x2="620"
            y1="-220"
            y2="-220"
            stroke-width="1"
            stroke="black"/>
      <text x="630" y="-218" font-size="60%">Male Artist</text>
      <line x1="575"
            x2="620"
            y1="-200"
            y2="-200"
            stroke-width="1"
            stroke="black"
            stroke-dasharray="20,10,5,5,5,10"/>
      <text x="630" y="-198" font-size="60%">Female Artist</text>
      <line x1="705"
            x2="750"
            y1="-220"
            y2="-220"
            stroke-width="1"
            stroke="blue"/>
      <text x="760" y="-218" font-size="60%">Polite</text>
      <line x1="705"
            x2="750"
            y1="-200"
            y2="-200"
            stroke-width="1"
            stroke="green"/>
      <text x="760" y="-198" font-size="60%">Plain</text>
      <line x1="705"
            x2="750"
            y1="-180"
            y2="-180"
            stroke-width="1"
            stroke="red"/>
      <text x="760" y="-178" font-size="60%">Deprecatory</text>
      <circle r="4" cx="100" cy="-13.636363636363637" fill="red"/>
      <circle r="4" cx="200" cy="-0" fill="red"/>
      <circle r="4" cx="300" cy="-21.428571428571427" fill="red"/>
      <circle r="4" cx="400" cy="-0" fill="red"/>
      <circle r="4" cx="500" cy="-102.63157894736842" fill="red"/>
      <line x1="100"
            x2="200"
            y1="-13.636363636363637"
            y2="-0"
            stroke-width=""
            stroke="red"/>
      <line x1="200"
            x2="300"
            y1="-0"
            y2="-21.428571428571427"
            stroke-width=""
            stroke="red"/>
      <line x1="300"
            x2="400"
            y1="-21.428571428571427"
            y2="-0"
            stroke-width=""
            stroke="red"/>
      <line x1="400"
            x2="500"
            y1="-0"
            y2="-102.63157894736842"
            stroke-width=""
            stroke="red"/>
      <circle r="4" cx="100" cy="-231.8181818181818" fill="green"/>
      <circle r="4" cx="200" cy="-171.42857142857142" fill="green"/>
      <circle r="4" cx="300" cy="-278.57142857142856" fill="green"/>
      <circle r="4" cx="400" cy="-253.84615384615384" fill="green"/>
      <circle r="4" cx="500" cy="-197.3684210526316" fill="green"/>
      <line x1="100"
            x2="200"
            y1="-231.8181818181818"
            y2="-171.42857142857142"
            stroke-width=""
            stroke="green"/>
      <line x1="200"
            x2="300"
            y1="-171.42857142857142"
            y2="-278.57142857142856"
            stroke-width=""
            stroke="green"/>
      <line x1="300"
            x2="400"
            y1="-278.57142857142856"
            y2="-253.84615384615384"
            stroke-width=""
            stroke="green"/>
      <line x1="400"
            x2="500"
            y1="-253.84615384615384"
            y2="-197.3684210526316"
            stroke-width=""
            stroke="green"/>
      <circle r="4" cx="100" cy="-54.54545454545455" fill="blue"/>
      <circle r="4" cx="200" cy="-128.57142857142856" fill="blue"/>
      <circle r="4" cx="300" cy="-0" fill="blue"/>
      <circle r="4" cx="400" cy="-46.15384615384615" fill="blue"/>
      <circle r="4" cx="500" cy="-0" fill="blue"/>
      <line x1="100"
            x2="200"
            y1="-54.54545454545455"
            y2="-128.57142857142856"
            stroke-width=""
            stroke="blue"/>
      <line x1="200"
            x2="300"
            y1="-128.57142857142856"
            y2="-0"
            stroke-width=""
            stroke="blue"/>
      <line x1="300"
            x2="400"
            y1="-0"
            y2="-46.15384615384615"
            stroke-width=""
            stroke="blue"/>
      <line x1="400"
            x2="500"
            y1="-46.15384615384615"
            y2="-0"
            stroke-width=""
            stroke="blue"/>
      <circle r="4" cx="100" cy="-0" fill="red"/>
      <circle r="4" cx="200" cy="-0" fill="red"/>
      <circle r="4" cx="300" cy="-0" fill="red"/>
      <circle r="4" cx="400" cy="-0" fill="red"/>
      <circle r="4" cx="500" cy="-0" fill="red"/>
      <line x1="100"
            x2="200"
            y1="-0"
            y2="-0"
            stroke-dasharray="20,10,5,5,5,10"
            stroke-width="1"
            stroke="red"/>
      <line x1="200"
            x2="300"
            y1="-0"
            y2="-0"
            stroke-dasharray="20,10,5,5,5,10"
            stroke-width="1"
            stroke="red"/>
      <line x1="300"
            x2="400"
            y1="-0"
            y2="-0"
            stroke-dasharray="20,10,5,5,5,10"
            stroke-width="1"
            stroke="red"/>
      <line x1="400"
            x2="500"
            y1="-0"
            y2="-0"
            stroke-dasharray="20,10,5,5,5,10"
            stroke-width="1"
            stroke="red"/>
      <circle r="4" cx="100" cy="-236.36363636363635" fill="green"/>
      <circle r="4" cx="200" cy="-300" fill="green"/>
      <circle r="4" cx="300" cy="-300" fill="green"/>
      <circle r="4" cx="400" cy="-300" fill="green"/>
      <circle r="4" cx="500" cy="-300" fill="green"/>
      <line x1="100"
            x2="200"
            y1="-236.36363636363635"
            y2="-300"
            stroke-dasharray="20,10,5,5,5,10"
            stroke-width="1"
            stroke="green"/>
      <line x1="200"
            x2="300"
            y1="-300"
            y2="-300"
            stroke-dasharray="20,10,5,5,5,10"
            stroke-width=""
            stroke="green"/>
      <line x1="300"
            x2="400"
            y1="-300"
            y2="-300"
            stroke-dasharray="20,10,5,5,5,10"
            stroke-width="1"
            stroke="green"/>
      <line x1="400"
            x2="500"
            y1="-300"
            y2="-300"
            stroke-dasharray="20,10,5,5,5,10"
            stroke-width="1"
            stroke="green"/>
      <circle r="4" cx="100" cy="-9.090909090909092" fill="blue"/>
      <circle r="4" cx="200" cy="-0" fill="blue"/>
      <circle r="4" cx="300" cy="-0" fill="blue"/>
      <circle r="4" cx="400" cy="-0" fill="blue"/>
      <circle r="4" cx="500" cy="-0" fill="blue"/>
      <line x1="100"
            x2="200"
            y1="-9.090909090909092"
            y2="-0"
            stroke-dasharray="20,10,5,5,5,10"
            stroke-width="1"
            stroke="blue"/>
      <line x1="200"
            x2="300"
            y1="-0"
            y2="-0"
            stroke-dasharray="20,10,5,5,5,10"
            stroke-width="1"
            stroke="blue"/>
      <line x1="300"
            x2="400"
            y1="-0"
            y2="-0"
            stroke-dasharray="20,10,5,5,5,10"
            stroke-width="1"
            stroke="blue"/>
      <line x1="400"
            x2="500"
            y1="-0"
            y2="-0"
            stroke-dasharray="20,10,5,5,5,10"
            stroke-width="1"
            stroke="blue"/>
      <text x="85" y="15" font-size="75%">1980</text>
      <text x="185" y="15" font-size="75%">1990</text>
      <text x="285" y="15" font-size="75%">2000</text>
      <text x="385" y="15" font-size="75%">2010</text>
      <text x="485" y="15" font-size="75%">2017</text>
   </g>
</svg>
